<svg xmlns="http://www.w3.org/2000/svg" viewBox="0 0 48 48" fill-rule="evenodd" clip-rule="evenodd" baseProfile="basic"><path d="M0 15v2h2v-2h-2zm12-3v2h2v-2h-2zm22 0v2h2v-2h-2zm12 3v2h2v-2h-2z"/><path d="M8 37c0-.72-.39-1.83-1.14-3.33-.74-1.48-1.72-3.14-2.74-4.98-1.96-3.55-4.12-7.8-4.12-11.7 0-3.13 1.27-6.56 2.93-9.2 1.59-2.51 3.85-4.8 6.07-4.8 3.97 0 5 7.19 5 11 0 3-.53 4.83-1.02 7.06-.3 1.32-.59 2.84-.78 4.92 3.06-4 7.42-6.97 11.8-6.97 4.38 0 8.74 2.96 11.8 6.96a37.3 37.3 0 0 0-.78-4.91c-.49-2.23-1.02-4.07-1.02-7.05 0-3.8 1.04-11 5-11 2.22 0 4.48 2.27 6.07 4.8 1.66 2.63 2.93 6.06 2.93 9.2 0 3.9-2.17 8.16-4.13 11.7-1.01 1.83-1.99 3.5-2.73 4.97-.76 1.52-1.14 2.6-1.14 3.33v.02c0 6.96-8.56 9.98-16 9.98-7.5 0-16-3.05-16-10z"/><path fill="#fff" d="M11 29v6h-2c0-3.95-8-12.82-8-20 0-5.78 4.74-13 8-13 2.78 0 4 5.74 4 10 0 5.7-2 6.86-2 17z"/><path d="M8 35c0-.72-.39-1.83-1.14-3.33-.74-1.48-1.72-3.14-2.74-4.98-1.96-3.55-4.12-7.8-4.12-11.7 0-3.12 1.27-6.56 2.93-9.2 1.59-2.51 3.85-4.8 6.07-4.8 3.97 0 5 7.19 5 11 0 3-.53 4.83-1.02 7.06a42.1 42.1 0 0 0-.98 9.95v6a1 1 0 0 1-1 1h-2a1 1 0 0 1-1-1zm2-1v-5c0-5.15.51-8.05 1.02-10.38.51-2.31.98-3.9.98-6.62 0-2.05-.3-4.44-.9-6.28-.65-1.95-1.45-2.72-2.1-2.72-1.04 0-2.78 1.33-4.38 3.86-1.52 2.42-2.62 5.49-2.62 8.14 0 3.28 1.83 7.04 3.88 10.73.98 1.77 2 3.52 2.76 5.04.47.93.88 1.86 1.13 2.73l.12.5h.11z"/><path d="M6 29.59c0-4.67 1.59-8.33 3.12-11.22.77-1.47 1.5-2.68 2.05-3.78.55-1.12.83-1.93.83-2.6a1 1 0 0 1 2 0 8.1 8.1 0 0 1-1.04 3.49c-.58 1.15-1.34 2.43-2.08 3.82-1.46 2.78-2.88 6.1-2.88 10.29a1 1 0 0 1-2 0z"/><path fill="#fff" d="M37 29v6h2c0-3.95 8-12.82 8-20 0-5.78-4.74-13-8-13-2.78 0-4 5.74-4 10 0 5.7 2 6.86 2 17z"/><path d="M36 35v-6c0-5-.49-7.74-.98-9.95-.49-2.23-1.02-4.07-1.02-7.05 0-3.8 1.04-11 5-11 2.22 0 4.48 2.28 6.07 4.8 1.66 2.63 2.93 6.07 2.93 9.2 0 3.9-2.17 8.16-4.12 11.7-1.02 1.83-2 3.5-2.74 4.97-.76 1.52-1.14 2.6-1.14 3.33a1 1 0 0 1-1 1h-2a1 1 0 0 1-1-1zm3.36-4.23c.76-1.52 1.78-3.27 2.77-5.04 2.03-3.67 3.87-7.44 3.87-10.73 0-2.65-1.1-5.72-2.62-8.14-1.6-2.53-3.34-3.86-4.38-3.86-.64 0-1.44.75-2.1 2.72-.6 1.84-.9 4.23-.9 6.28 0 2.72.47 4.3.98 6.62a44.4 44.4 0 0 1 1.02 10.38v5h.11l.12-.5c.25-.87.66-1.8 1.13-2.73z"/><path d="M40 29.59c0-4.2-1.42-7.5-2.88-10.29-.73-1.37-1.5-2.67-2.08-3.82a8.12 8.12 0 0 1-1.04-3.48 1 1 0 0 1 2 0c0 .65.28 1.47.83 2.59.55 1.1 1.3 2.33 2.06 3.78 1.53 2.9 3.11 6.55 3.11 11.22a1 1 0 0 1-2 0zm-15.51-9.73-5-3a1 1 0 0 1 1.02-1.72l5 3a1 1 0 0 1-1.02 1.71z"/><path d="m25.14 20.51-3-5a1 1 0 0 1 1.72-1.03l3 5a1 1 0 0 1-1.72 1.03z"/><path d="m26.02 21.2-1-5a1 1 0 0 1 1.96-.4l1 5a1 1 0 0 1-1.96.4z"/><path fill="#fff" d="M24 44c-7.38 0-15-3-15-9 0-7.56 7.62-17 15-17s15 9.44 15 17c0 6-7.62 9-15 9z"/><path d="M8 35c0-7.98 7.96-18 16-18 8.05 0 16 10 16 18 0 6.99-8.56 10-16 10-7.5 0-16-3.05-16-10zm30 0c0-7.13-7.28-16-14-16-6.7 0-14 8.88-14 16 0 5.03 6.69 8 14 8 7.26 0 14-2.93 14-8z"/><path d="M15.4 40.28c-.77-.42-1.47-.98-2.08-1.55a1 1 0 0 1 1.37-1.46c.54.5 1.1.95 1.67 1.26.56.3 1.1.47 1.64.47.94 0 1.68-.21 2.61-.47a12.1 12.1 0 0 1 3.39-.53c1.4 0 2.46.28 3.39.53.93.26 1.67.47 2.6.47.54 0 1.09-.17 1.65-.47a8.23 8.23 0 0 0 1.67-1.26 1 1 0 0 1 1.37 1.46 10.4 10.4 0 0 1-2.08 1.55c-.77.42-1.65.72-2.6.72-1.25 0-2.25-.3-3.14-.54a10.1 10.1 0 0 0-2.86-.46c-1.12 0-1.96.22-2.86.46-.9.25-1.89.54-3.14.54-.95 0-1.83-.3-2.6-.72z"/><path d="M24 37c-1.82 0-4-2.12-4-4 0-1.75 1.6-3 4-3 2.39 0 4 1.25 4 3 0 1.88-2.18 4-4 4zm-8.5-10c1.38 0 2.5 1.79 2.5 4s-1.12 4-2.5 4-2.5-1.8-2.5-4 1.12-4 2.5-4z"/><path fill="#fff" d="M16 29a1 1 0 1 1 0 2 1 1 0 0 1 0-2z"/><path d="M32.5 27c-1.38 0-2.5 1.79-2.5 4s1.12 4 2.5 4 2.5-1.8 2.5-4-1.12-4-2.5-4z"/><path fill="#fff" d="M32 29a1 1 0 1 0 0 2 1 1 0 0 0 0-2z"/></svg>