<svg xmlns="http://www.w3.org/2000/svg" viewBox="0 0 48 48"><path fill="none" stroke="#000" stroke-linecap="round" stroke-linejoin="round" stroke-miterlimit="10" stroke-width="3" d="m13.4 13.8-3.6 2.9a6.12 6.12 0 0 0-2.3 4.7v18.1c0 1.1.9 2 2 2h20m5.5 0h3.5a2 2 0 0 0 2-2v-18.1c0-1.8-.8-3.6-2.3-4.7l-13.6-10.7c-.4-.3-.9-.3-1.2 0l-4.6 3.6"/><path fill="none" stroke="#000" stroke-linecap="round" stroke-linejoin="round" stroke-miterlimit="10" stroke-width="3" d="M18.5 35.7v-8.2c0-.6.4-1 1-1h8.9c.6 0 1 .4 1 1v14"/></svg>