<svg xmlns="http://www.w3.org/2000/svg" viewBox="0 0 24 24"><path d="M11.13 1c-.94 0-1.77.68-1.96 1.6l-.2 1a8.89 8.89 0 0 0-2.74 1.57l-.95-.32a2 2 0 0 0-2.37.9l-.87 1.5c-.47.82-.3 1.88.4 2.5l.76.67c-.1.52-.2 1.03-.2 1.58s.1 1.06.2 1.58l-.75.67a2.01 2.01 0 0 0-.41 2.5l.87 1.5c.47.82 1.47 1.2 2.37.9l.95-.32a8.89 8.89 0 0 0 2.74 1.57l.2 1c.19.92 1.02 1.6 1.96 1.6h1.74c.94 0 1.77-.68 1.96-1.6l.2-1a8.92 8.92 0 0 0 2.74-1.57l.95.32c.9.3 1.9-.08 2.37-.9l.87-1.5c.47-.82.3-1.87-.4-2.5l-.76-.67c.1-.52.2-1.03.2-1.58s-.1-1.06-.2-1.58l.75-.67c.71-.62.88-1.68.41-2.5l-.87-1.5a2.01 2.01 0 0 0-2.37-.9l-.95.32a8.91 8.91 0 0 0-2.74-1.57l-.2-1a2.01 2.01 0 0 0-1.96-1.6h-1.74zm0 2h1.74l.3 1.5a1 1 0 0 0 .72.77c1.15.32 2.17.92 3 1.73a1 1 0 0 0 1.02.23l1.45-.48.87 1.5-1.15 1.02a1 1 0 0 0-.3 1 7 7 0 0 1 0 3.46 1 1 0 0 0 .3 1l1.15 1.02-.87 1.5-1.45-.48a1 1 0 0 0-1.02.23 6.98 6.98 0 0 1-3 1.73 1 1 0 0 0-.71.77l-.31 1.5h-1.74l-.3-1.5a1 1 0 0 0-.72-.77 6.98 6.98 0 0 1-3-1.73 1 1 0 0 0-1.02-.23l-1.45.48-.87-1.5 1.15-1.02a1 1 0 0 0 .3-1 7 7 0 0 1 0-3.46 1 1 0 0 0-.3-1l-1.15-1.02.87-1.5 1.45.48a1 1 0 0 0 1.02-.23 6.98 6.98 0 0 1 3-1.73 1 1 0 0 0 .71-.77l.31-1.5zm.87 5c-1.25 0-2.31.5-3 1.27-.68.77-1 1.76-1 2.73s.32 1.96 1 2.73a3.97 3.97 0 0 0 3 1.27c1.25 0 2.31-.5 3-1.27.68-.77 1-1.76 1-2.73s-.32-1.96-1-2.73a3.97 3.97 0 0 0-3-1.27zm0 2c.75 0 1.19.25 1.5.6.32.36.5.87.5 1.4 0 .53-.18 1.04-.5 1.4-.31.35-.75.6-1.5.6s-1.19-.25-1.5-.6c-.32-.36-.5-.87-.5-1.4 0-.53.18-1.04.5-1.4.31-.35.75-.6 1.5-.6z"/></svg>